<svg xmlns="http://www.w3.org/2000/svg" width="38.511" height="40.535" viewBox="0 0 38.511 40.535">
  <g id="Icon_IG" data-name="Icon IG" transform="translate(-357 -11676.488)">
    <path id="Path_715" data-name="Path 715" d="M214.371,210.879A3.69,3.69,0,1,1,210.686,207,3.786,3.786,0,0,1,214.371,210.879Zm0,0" transform="translate(165.57 11485.876)" fill="#0bb4ff"/>
    <path id="Path_716" data-name="Path 716" d="M153.169,138.166a3.63,3.63,0,0,0-.827-1.338,3.412,3.412,0,0,0-1.271-.871,5.852,5.852,0,0,0-2.053-.4c-1.166-.056-1.516-.068-4.468-.068s-3.3.012-4.468.068a5.856,5.856,0,0,0-2.053.4,3.41,3.41,0,0,0-1.271.871,3.632,3.632,0,0,0-.827,1.338,6.738,6.738,0,0,0-.38,2.161c-.053,1.227-.065,1.6-.065,4.7s.011,3.475.065,4.7a6.735,6.735,0,0,0,.38,2.161,3.631,3.631,0,0,0,.827,1.338,3.412,3.412,0,0,0,1.271.871,5.845,5.845,0,0,0,2.053.4c1.166.056,1.515.068,4.468.068s3.3-.012,4.468-.068a5.845,5.845,0,0,0,2.053-.4,3.763,3.763,0,0,0,2.1-2.209,6.741,6.741,0,0,0,.381-2.161c.053-1.227.064-1.6.064-4.7s-.011-3.476-.064-4.7A6.727,6.727,0,0,0,153.169,138.166Zm-8.619,12.84a5.984,5.984,0,1,1,5.678-5.976A5.833,5.833,0,0,1,144.549,151.006Zm5.9-10.792a1.4,1.4,0,1,1,1.327-1.4A1.363,1.363,0,0,1,150.452,140.214Zm0,0" transform="translate(231.706 11551.727)" fill="#0bb4ff"/>
    <g id="Group_274" data-name="Group 274" transform="translate(357 11676.488)">
      <path id="Path_717" data-name="Path 717" d="M19.256,0C8.623,0,0,9.076,0,20.267S8.623,40.535,19.256,40.535s19.256-9.076,19.256-20.267S29.888,0,19.256,0Zm10.99,25.065a8.932,8.932,0,0,1-.514,2.825,5.81,5.81,0,0,1-3.234,3.4,7.765,7.765,0,0,1-2.684.541c-1.179.057-1.556.07-4.559.07s-3.379-.014-4.559-.07a7.765,7.765,0,0,1-2.684-.541,5.4,5.4,0,0,1-1.959-1.342A5.741,5.741,0,0,1,8.78,27.89a8.93,8.93,0,0,1-.514-2.825c-.054-1.241-.067-1.638-.067-4.8s.013-3.557.067-4.8a8.933,8.933,0,0,1,.514-2.825,5.739,5.739,0,0,1,1.276-2.061,5.4,5.4,0,0,1,1.958-1.342A7.767,7.767,0,0,1,14.7,8.7c1.179-.057,1.556-.07,4.559-.07s3.379.014,4.559.071a7.769,7.769,0,0,1,2.684.54,5.4,5.4,0,0,1,1.959,1.343,5.74,5.74,0,0,1,1.275,2.061,8.931,8.931,0,0,1,.514,2.825c.054,1.241.066,1.638.066,4.8S30.3,23.824,30.246,25.065Zm0,0" fill="#0bb4ff"/>
    </g>
  </g>
</svg>
