<svg xmlns="http://www.w3.org/2000/svg" width="40" height="41" viewBox="0 0 40 41">
  <g id="Icon_Twt" data-name="Icon Twt" transform="translate(-285.366 -12060)">
    <g id="Icon_twt-2" data-name="Icon twt" transform="translate(-130.634 1139)">
      <ellipse id="Ellipse_80" data-name="Ellipse 80" cx="20" cy="20.5" rx="20" ry="20.5" transform="translate(416 10921)" fill="#0bb4ff"/>
    </g>
    <path id="twitter" d="M8.173,17.735c-3.585,0-6.419-.626-7.775-1.718L.372,16l-.024-.024a1.1,1.1,0,0,1-.289-1.16l.013-.034a1.123,1.123,0,0,1,1.025-.7,9.257,9.257,0,0,0,2.448-.337A4.646,4.646,0,0,1,1.1,10.906a1,1,0,0,1,.35-1.169,1.024,1.024,0,0,1,.305-.156A6.775,6.775,0,0,1,.362,7.091L.353,7.063.348,7.035A1.044,1.044,0,0,1,.831,5.914a1.04,1.04,0,0,1,.5-.14,5.238,5.238,0,0,1-.4-1.207A5.051,5.051,0,0,1,1.468,1.2L1.6.935A.743.743,0,0,1,2.792.742l.243.243A11.454,11.454,0,0,0,9.639,4.6a5.262,5.262,0,0,1,1.42-3.033A4.984,4.984,0,0,1,14.617,0h.009a7.128,7.128,0,0,1,2.941.957C18.2.751,18.963.43,19.754.091a1,1,0,0,1,1.118.2.982.982,0,0,1,.213,1.079q-.086.24-.2.471a1,1,0,0,1,.291.2,1.081,1.081,0,0,1,.269,1.01l-.01.034a4.121,4.121,0,0,1-1.656,2.273C19.656,12.206,14.5,17.735,8.173,17.735Zm-6.567-2.42a14.839,14.839,0,0,0,6.567,1.16,9.837,9.837,0,0,0,7.292-3.318,11.887,11.887,0,0,0,3.061-8.066V5.058a.742.742,0,0,1,.4-.657A2.675,2.675,0,0,0,20.081,3.12a.743.743,0,0,1-.716-1.17,4.089,4.089,0,0,0,.281-.444c-.683.287-1.332.544-1.9.715a.806.806,0,0,1-.62-.067,6.138,6.138,0,0,0-2.5-.894,3.917,3.917,0,0,0-3.768,3.969.743.743,0,0,1-.887.729A13.023,13.023,0,0,1,2.413,2.152a3.719,3.719,0,0,0-.245,2.175A4.6,4.6,0,0,0,3.258,6.442a.743.743,0,0,1-.75,1.208,3.4,3.4,0,0,1-.693-.266,6.276,6.276,0,0,0,2.152,2.5.743.743,0,0,1-.475,1.353,3.34,3.34,0,0,1-.986-.213,3.388,3.388,0,0,0,2.7,1.916.743.743,0,0,1,.221,1.389,8.927,8.927,0,0,1-3.824.991Zm0,0" transform="translate(294.367 12072)"/>
  </g>
</svg>
