<svg xmlns="http://www.w3.org/2000/svg" width="40" height="41" viewBox="0 0 40 41">
  <g id="Icon_FB" data-name="Icon FB" transform="translate(-357 -11899)">
    <g id="Group_286" data-name="Group 286" transform="translate(-59 978)">
      <ellipse id="Ellipse_80" data-name="Ellipse 80" cx="20" cy="20.5" rx="20" ry="20.5" transform="translate(416 10921)" fill="#0bb4ff"/>
    </g>
    <path id="facebook" d="M9.148,24.666H5.2a1.2,1.2,0,0,1-1.2-1.2V14.56H1.7a1.2,1.2,0,0,1-1.2-1.2V9.545a1.2,1.2,0,0,1,1.2-1.2H4V6.437A6.509,6.509,0,0,1,5.722,1.773,6.2,6.2,0,0,1,10.293,0l3.013,0A1.2,1.2,0,0,1,14.5,1.2V4.746a1.2,1.2,0,0,1-1.2,1.2H11.276c-.619,0-.776.124-.81.162-.056.063-.122.241-.122.733v1.51h2.807a1.216,1.216,0,0,1,.592.15,1.2,1.2,0,0,1,.616,1.047l0,3.818a1.2,1.2,0,0,1-1.2,1.2H10.344v8.91a1.2,1.2,0,0,1-1.2,1.2Zm-3.7-1.446H8.9V13.912a.8.8,0,0,1,.8-.8h3.215V9.795H9.7A.8.8,0,0,1,8.9,9V6.838a2.463,2.463,0,0,1,.484-1.69A2.451,2.451,0,0,1,11.275,4.5h1.779V1.45l-2.762,0c-2.988,0-4.845,1.913-4.845,4.991V9a.8.8,0,0,1-.8.8h-2.7v3.318h2.7a.8.8,0,0,1,.8.8ZM13.3,1.451h0Zm0,0" transform="translate(369.5 11907)" fill="#121212"/>
  </g>
</svg>
