<svg xmlns="http://www.w3.org/2000/svg" width="39" height="41" viewBox="0 0 39 41">
  <g id="Icon_Line" data-name="Icon Line" transform="translate(-357 -11788)">
    <ellipse id="Ellipse_81" data-name="Ellipse 81" cx="19.5" cy="20.5" rx="19.5" ry="20.5" transform="translate(357 11788)" fill="#0bb4ff"/>
    <g id="line" transform="translate(364 11796.979)">
      <path id="Path_2232" data-name="Path 2232" d="M0,10.34c0,5.1,4.229,9.388,10,10.191a1.109,1.109,0,0,1,.475.173,10.58,10.58,0,0,1-.188,1.673c-.2,1.315.641,2,2.032,1.391a37.036,37.036,0,0,0,9.112-7.061A9.178,9.178,0,0,0,23.187,6.59C18.327-4.068,0-.995,0,10.34Zm20.284,5.4a35.9,35.9,0,0,1-8.488,6.62c.172-1.38.679-2.816-1.534-3.3C5.185,18.347,1.5,14.682,1.5,10.34,1.5.621,17.628-1.991,21.821,7.212a7.74,7.74,0,0,1-1.537,8.524Z" fill="#121212"/>
      <path id="Path_2233" data-name="Path 2233" d="M7.6,11.739H6.392V7.6a.75.75,0,0,0-1.5,0V12.49a.75.75,0,0,0,.75.75H7.6A.751.751,0,0,0,7.6,11.739Z" fill="#121212"/>
      <path id="Path_2234" data-name="Path 2234" d="M8.805,7.6c.224,3.768-.551,5.642.75,5.642a.75.75,0,0,0,.75-.75V7.6a.75.75,0,0,0-1.5,0Z" fill="#121212"/>
      <path id="Path_2235" data-name="Path 2235" d="M18.358,8.348a.75.75,0,0,0,0-1.5H16.4a.75.75,0,0,0-.75.75V12.49a.75.75,0,0,0,.75.75h1.956a.75.75,0,0,0,0-1.5H17.152v-.946h1.206a.75.75,0,0,0,0-1.5H17.152V8.348Z" fill="#121212"/>
      <path id="Path_2236" data-name="Path 2236" d="M13.695,7.6V9.782L12.154,7.213A.751.751,0,0,0,10.76,7.6v4.892a.75.75,0,0,0,1.5,0V10.307L13.8,12.876a.752.752,0,0,0,.644.364.764.764,0,0,0,.2-.027.75.75,0,0,0,.55-.723V7.6a.75.75,0,0,0-1.5,0Z" fill="#121212"/>
    </g>
  </g>
</svg>
