<svg xmlns="http://www.w3.org/2000/svg" width="38" height="40" viewBox="0 0 38 40">
  <g id="Icon_WA" data-name="Icon WA" transform="translate(-416 -10874)">
    <path id="Path_2149" data-name="Path 2149" d="M19,0C29.493,0,38,8.954,38,20S29.493,40,19,40,0,31.046,0,20,8.507,0,19,0Z" transform="translate(416 10874)" fill="#0bb4ff"/>
    <path id="whatsapp" d="M18.528,3.273A10.347,10.347,0,0,0,10.992,0,10.93,10.93,0,0,0,.339,11.158a11.549,11.549,0,0,0,1.422,5.579L.25,22.519,5.9,20.968a10.263,10.263,0,0,0,5.091,1.358h0A10.93,10.93,0,0,0,21.645,11.167a11.363,11.363,0,0,0-3.117-7.894ZM10.992,20.441h0a8.541,8.541,0,0,1-4.507-1.293l-.323-.2-3.351.921L3.7,16.446l-.211-.351a9.579,9.579,0,0,1-1.354-4.936A9.085,9.085,0,0,1,11,1.885a8.6,8.6,0,0,1,6.26,2.72,9.447,9.447,0,0,1,2.591,6.562,9.085,9.085,0,0,1-8.854,9.275Zm4.857-6.946c-.266-.14-1.575-.814-1.819-.907s-.421-.139-.6.14-.688.907-.843,1.093-.31.209-.577.07a7.208,7.208,0,0,1-2.141-1.384A8.366,8.366,0,0,1,8.39,10.575c-.155-.279,0-.416.117-.569a7.886,7.886,0,0,0,.665-.954.534.534,0,0,0-.022-.488c-.066-.14-.6-1.512-.82-2.07s-.435-.47-.6-.479S7.4,6,7.221,6a.958.958,0,0,0-.71.349A3.191,3.191,0,0,0,5.579,8.68a5.56,5.56,0,0,0,1.087,2.884,12.1,12.1,0,0,0,4.547,4.21,14.8,14.8,0,0,0,1.517.587,3.49,3.49,0,0,0,1.677.111,2.748,2.748,0,0,0,1.8-1.326,2.433,2.433,0,0,0,.155-1.326c-.066-.116-.244-.186-.51-.326Zm0,0" transform="translate(424.073 10882.894)" fill="#0f0f0f" fill-rule="evenodd"/>
  </g>
</svg>
